<?xml version="1.0" encoding="UTF-8" standalone="no"?>
<!-- Generator: Adobe Illustrator 16.0.0, SVG Export Plug-In . SVG Version: 6.00 Build 0)  -->

<svg
   xmlns:dc="http://purl.org/dc/elements/1.1/"
   xmlns:cc="http://creativecommons.org/ns#"
   xmlns:rdf="http://www.w3.org/1999/02/22-rdf-syntax-ns#"
   xmlns:svg="http://www.w3.org/2000/svg"
   xmlns="http://www.w3.org/2000/svg"
   xmlns:sodipodi="http://sodipodi.sourceforge.net/DTD/sodipodi-0.dtd"
   xmlns:inkscape="http://www.inkscape.org/namespaces/inkscape"
   version="1.1"
   id="Layer_1"
   x="0px"
   y="0px"
   width="128.042px"
   height="114.043px"
   viewBox="0 0 128.042 114.043"
   enable-background="new 0 0 128.042 114.043"
   xml:space="preserve"
   inkscape:version="0.48.4 r9939"
   sodipodi:docname="check.svg"><metadata
   id="metadata13"><rdf:RDF><cc:Work
       rdf:about=""><dc:format>image/svg+xml</dc:format><dc:type
         rdf:resource="http://purl.org/dc/dcmitype/StillImage" /></cc:Work></rdf:RDF></metadata><defs
   id="defs11" /><sodipodi:namedview
   pagecolor="#ffffff"
   bordercolor="#666666"
   borderopacity="1"
   objecttolerance="10"
   gridtolerance="10"
   guidetolerance="10"
   inkscape:pageopacity="0"
   inkscape:pageshadow="2"
   inkscape:window-width="1920"
   inkscape:window-height="1017"
   id="namedview9"
   showgrid="false"
   inkscape:zoom="2.0693949"
   inkscape:cx="64.021004"
   inkscape:cy="57.0215"
   inkscape:window-x="-8"
   inkscape:window-y="-8"
   inkscape:window-maximized="1"
   inkscape:current-layer="Layer_1" />
<g
   id="g3"
   style="fill:#e45028;fill-opacity:1">
	<path
   fill-rule="evenodd"
   clip-rule="evenodd"
   fill="#969696"
   d="M51.993,114.043c-1.666,0-3.333,0-4.999,0   C31.33,96.046,15.665,78.048,0,60.05c0-1.666,0-3.333,0-4.999c5.408-5.388,10.779-10.815,16.238-16.152   c4.448-4.35,7.695-4.26,11.768,0.401c6.347,7.264,12.654,14.565,18.827,21.977c1.9,2.282,2.987,2.783,5.171,0.133   c16.909-20.522,33.97-40.917,50.983-61.352c1.666,0,3.333,0,4.999,0c7.063,6.269,13.781,12.883,19.998,19.998   c0,1.666,0,3.333,0,4.999c-9.925,11.595-19.861,23.18-29.771,34.789C82.797,77.9,67.399,95.976,51.993,114.043z"
   id="path5"
   style="fill:#e45028;fill-opacity:1" />
	<path
   fill-rule="evenodd"
   clip-rule="evenodd"
   fill="#FDFDFD"
   d="M127.984,20.055c-6.217-7.115-12.936-13.729-19.998-19.998   c5.999,0,12,0.088,17.996-0.055c1.74-0.042,2.098,0.315,2.057,2.056C127.896,8.055,127.984,14.056,127.984,20.055z"
   id="path7"
   style="fill:#e45028;fill-opacity:1" />
</g>
</svg>